:FULLY-SPECIFIED
:FORCE-ALL-JOINTS-BE-3DOF
:DEGREES
747
root 4.01254 17.3023 14.3144 -163.574 -27.5208 -170.074
lfemur -20.2093 -13.4969 -4.67538
ltibia 13.5265 -0 0
lfoot 6.92759 -13.1159 -0.559085
ltoes 17.2021 -0 0
rfemur -25.1463 -31.1561 -6.78157
rtibia 126.381 -0 0
rfoot 32.6241 9.61803 -0.44152
rtoes 29.0061 -0 0
lowerback -0.0930586 7.7138 1.31207
upperback -2.67433 10.2799 -1.45037
thorax -2.22435 5.08685 -2.43125
lowerneck -7.83657 -7.61755 -1.28891
upperneck -1.75904 -10.178 3.11583
head 0.997359 -5.08313 0.830881
lclavicle 6.74918e-15 -3.05561e-14 0
lhumerus -56.8914 -16.3141 50.6225
lradius 48.7082 -0 0
lwrist 19.4381 0 0
lhand -22.0664 -4.42286 0.0193212
lfingers 7.12502 0 0
lthumb 3.75105 24.8244 0.0185988
rclavicle 6.74918e-15 -3.05561e-14 0
rhumerus 36.081 15.0637 -45.4202
rradius 88.6232 -0 0
rwrist -6.82544 0 0
rhand -28.5827 -29.2769 0.0999499
rfingers 7.12502 0 0
rthumb -2.51182 -58.7263 0.0985959
748
root 3.96186 17.1604 14.5004 -162.598 -28.2743 -169.398
lfemur -19.0249 -13.195 -4.4957
ltibia 11.9543 -0 0
lfoot 6.97452 -12.783 -0.472555
ltoes 16.3417 -0 0
rfemur -23.7331 -30.154 -6.75985
rtibia 124.806 -0 0
rfoot 31.4318 9.62508 -0.454613
rtoes 27.4799 -0 0
lowerback -0.196611 7.48008 1.33473
upperback -2.58608 9.96821 -1.36538
thorax -2.08781 4.93071 -2.34797
lowerneck -7.5094 -7.26601 -1.20772
upperneck -1.69685 -9.71318 2.92014
head 0.946557 -4.85184 0.772116
lclavicle 3.05273e-15 -2.84546e-14 0
lhumerus -55.3262 -15.6838 48.6073
lradius 46.6586 -0 0
lwrist 18.5874 0 0
lhand -20.9922 -4.19644 0.0162953
lfingers 7.12502 0 0
lthumb 3.65191 23.7304 0.0157463
rclavicle 3.05273e-15 -2.84546e-14 0
rhumerus 35.3016 14.5179 -43.5676
rradius 85.6856 -0 0
rwrist -6.58956 0 0
rhand -27.4617 -28.046 0.0865401
rfingers 7.12502 0 0
rthumb -2.53523 -56.4747 0.0867114
749
root 3.91118 17.0185 14.6865 -161.535 -28.9543 -168.659
lfemur -17.9718 -12.879 -4.35531
ltibia 10.5729 -0 0
lfoot 6.97176 -12.4513 -0.404294
ltoes 15.5599 -0 0
rfemur -22.4548 -29.2546 -6.70851
rtibia 123.116 -0 0
rfoot 30.3204 9.61509 -0.459603
rtoes 26.0745 -0 0
lowerback -0.28771 7.27107 1.35016
upperback -2.50514 9.68912 -1.29221
thorax -1.96472 4.7912 -2.27398
lowerneck -7.21365 -6.95253 -1.13513
upperneck -1.64197 -9.29819 2.74822
head 0.900638 -4.64544 0.720547
lclavicle -6.43719e-16 -2.63532e-14 0
lhumerus -53.8921 -15.0669 46.8163
lradius 44.7924 -0 0
lwrist 17.8117 0 0
lhand -20.0308 -3.99792 0.0137356
lfingers 7.12502 0 0
lthumb 3.55777 22.7397 0.0133143
rclavicle -6.43719e-16 -2.63532e-14 0
rhumerus 34.5805 14.0755 -41.9045
rradius 82.8144 -0 0
rwrist -6.36096 0 0
rhand -26.4365 -26.9164 0.0755458
rfingers 7.12502 0 0
rthumb -2.54523 -54.3609 0.0767053
750
root 3.86051 16.8766 14.8725 -160.471 -29.4068 -167.915
lfemur -17.1088 -12.5505 -4.27244
ltibia 9.44915 -0 0
lfoot 6.90428 -12.1306 -0.362603
ltoes 14.8918 -0 0
rfemur -21.3741 -28.5246 -6.62399
rtibia 121.439 -0 0
rfoot 29.3519 9.59656 -0.455324
rtoes 24.8609 -0 0
lowerback -0.363191 7.10121 1.35705
upperback -2.43572 9.4621 -1.23551
thorax -1.86054 4.67801 -2.21401
lowerneck -6.96464 -6.69498 -1.07461
upperneck -1.59791 -8.9568 2.60946
head 0.861816 -4.47564 0.678938
lclavicle -4.34017e-15 -2.42517e-14 0
lhumerus -52.7095 -14.4963 45.3971
lradius 43.2387 -0 0
lwrist 17.1499 0 0
lhand -19.2384 -3.83976 0.0118763
lfingers 7.12502 0 0
lthumb 3.47131 21.9065 0.0115385
rclavicle -4.34017e-15 -2.42517e-14 0
rhumerus 33.9719 13.807 -40.5461
rradius 80.2382 -0 0
rwrist -6.1456 0 0
rhand -25.5629 -25.9466 0.0682794
rfingers 7.12502 0 0
rthumb -2.53858 -52.5233 0.0700449
751
root 3.80983 16.7347 15.0586 -159.547 -29.4326 -167.261
lfemur -16.4906 -12.2116 -4.26463
ltibia 8.64257 -0 0
lfoot 6.75816 -11.8308 -0.355369
ltoes 14.3697 -0 0
rfemur -20.5477 -28.03 -6.5034
rtibia 119.961 -0 0
rfoot 28.5859 9.57887 -0.440422
rtoes 23.9046 -0 0
lowerback -0.420544 6.98453 1.35442
upperback -2.38193 9.30611 -1.19963
thorax -1.7802 4.60058 -2.17261
lowerneck -6.77678 -6.51016 -1.02937
upperneck -1.56807 -8.71137 2.51252
head 0.832131 -4.35341 0.649817
lclavicle -8.03661e-15 -2.21503e-14 0
lhumerus -51.9012 -14.005 44.4933
lradius 42.123 -0 0
lwrist 16.6383 0 0
lhand -18.6677 -3.73361 0.0109352
lfingers 7.12502 0 0
lthumb 3.39519 21.2817 0.0106395
rclavicle -8.03661e-15 -2.21503e-14 0
rhumerus 33.5304 13.783 -39.6029
rradius 78.2088 -0 0
rwrist -5.94897 0 0
rhand -24.8947 -25.1921 0.0659801
rfingers 7.12502 0 0
rthumb -2.51254 -51.1002 0.0681621
752
root 3.75915 16.5928 15.2446 -158.949 -28.8194 -166.825
lfemur -16.1707 -11.863 -4.35038
ltibia 8.21069 -0 0
lfoot 6.51827 -11.5602 -0.39016
ltoes 14.0246 -0 0
rfemur -20.0303 -27.8368 -6.34279
rtibia 118.909 -0 0
rfoot 28.08 9.57152 -0.413394
rtoes 23.2674 -0 0
lowerback -0.457482 6.93507 1.34127
upperback -2.34773 9.24016 -1.18896
thorax -1.72843 4.56839 -2.15436
lowerneck -6.66415 -6.41464 -1.00246
upperneck -1.55584 -8.58394 2.46592
head 0.813554 -4.2896 0.635678
lclavicle -1.17331e-14 -2.00489e-14 0
lhumerus -51.5907 -13.6239 44.2471
lradius 41.5677 -0 0
lwrist 16.3119 0 0
lhand -18.3704 -3.69114 0.0111185
lfingers 7.12502 0 0
lthumb 3.33188 20.9153 0.0108241
rclavicle -1.17331e-14 -2.00489e-14 0
rhumerus 33.311 14.0749 -39.1853
rradius 76.9809 -0 0
rwrist -5.77574 0 0
rhand -24.4838 -24.7064 0.0698131
rfingers 7.12502 0 0
rthumb -2.46411 -50.2264 0.0723782
753
root 3.70847 16.4509 15.4307 -158.852 -27.408 -166.733
lfemur -16.206 -11.5025 -4.5513
ltibia 8.21659 -0 0
lfoot 6.16524 -11.3254 -0.474361
ltoes 13.8878 -0 0
rfemur -19.8797 -28.0138 -6.13489
rtibia 118.509 -0 0
rfoot 27.8909 9.58304 -0.372644
rtoes 23.0108 -0 0
lowerback -0.471361 6.96755 1.31609
upperback -2.33713 9.28406 -1.20832
thorax -1.71017 4.59131 -2.16408
lowerneck -6.64127 -6.42592 -0.997179
upperneck -1.56488 -8.59771 2.47895
head 0.808129 -4.29565 0.63924
lclavicle -1.54295e-14 -1.79474e-14 0
lhumerus -51.8994 -13.3795 44.8049
lradius 41.6953 -0 0
lwrist 16.2063 0 0
lhand -18.4003 -3.72494 0.0126272
lfingers 7.12502 0 0
lthumb 3.28342 20.8578 0.0122893
rclavicle -1.54295e-14 -1.79474e-14 0
rhumerus 33.3699 14.7563 -39.4119
rradius 76.7889 -0 0
rwrist -5.62937 0 0
rhand -24.3826 -24.5428 0.0808802
rfingers 7.12502 0 0
rthumb -2.38914 -50.0305 0.0838383
754
root 3.65779 16.3091 15.6167 -159.349 -25.1796 -167.05
lfemur -16.6625 -11.1229 -4.89476
ltibia 8.73787 -0 0
lfoot 5.67163 -11.1292 -0.615377
ltoes 13.9936 -0 0
rfemur -20.1632 -28.6354 -5.86613
rtibia 118.916 -0 0
rfoot 28.0758 9.61988 -0.316568
rtoes 23.2008 -0 0
lowerback -0.458459 7.09803 1.27621
upperback -2.35425 9.45933 -1.2636
thorax -1.73105 4.68018 -2.20711
lowerneck -6.72409 -6.56385 -1.01734
upperneck -1.59927 -8.77891 2.56273
head 0.818149 -4.38451 0.663776
lclavicle -1.9126e-14 -1.5846e-14 0
lhumerus -52.9441 -13.2914 46.323
lradius 42.6325 -0 0
lwrist 16.3596 0 0
lhand -18.8183 -3.84977 0.0156646
lfingers 7.12502 0 0
lthumb 3.25108 21.1646 0.0152268
rclavicle -1.9126e-14 -1.5846e-14 0
rhumerus 33.7651 15.9035 -40.4193
rradius 77.8234 -0 0
rwrist -5.51173 0 0
rhand -24.6459 -24.757 0.100233
rfingers 7.12502 0 0
rthumb -2.28116 -50.6347 0.103435
755
root 3.60712 16.1672 15.8028 -160.388 -22.3077 -167.739
lfemur -17.6217 -10.7098 -5.41708
ltibia 9.87742 -0 0
lfoot 4.99731 -10.9701 -0.820893
ltoes 14.3818 -0 0
rfemur -20.9653 -29.7841 -5.51289
rtibia 120.155 -0 0
rfoot 28.6942 9.68488 -0.243659
rtoes 23.913 -0 0
lowerback -0.413117 7.34486 1.21712
upperback -2.40348 9.79035 -1.36238
thorax -1.79808 4.84731 -2.28965
lowerneck -6.93117 -6.85238 -1.06779
upperneck -1.66389 -9.15899 2.73146
head 0.846369 -4.57178 0.713508
lclavicle -2.28224e-14 -1.37445e-14 0
lhumerus -54.8294 -13.3682 48.968
lradius 44.5111 -0 0
lwrist 16.815 0 0
lhand -19.6965 -4.08401 0.0204461
lfingers 7.12502 0 0
lthumb 3.23502 21.8984 0.0198264
rclavicle -2.28224e-14 -1.37445e-14 0
rhumerus 34.5588 17.5926 -42.3737
rradius 80.2009 -0 0
rwrist -5.42253 0 0
rhand -25.3331 -25.41 0.128878
rfingers 7.12502 0 0
rthumb -2.12996 -52.1511 0.131679
756
root 3.55644 16.0253 15.9888 -161.79 -19.1184 -168.68
lfemur -19.1868 -10.2385 -6.16713
ltibia 11.7757 -0 0
lfoot 4.08387 -10.8406 -1.0992
ltoes 15.1006 -0 0
rfemur -22.3974 -31.5513 -5.03628
rtibia 122.096 -0 0
rfoot 29.809 9.77576 -0.152629
rtoes 25.2374 -0 0
lowerback -0.326724 7.72965 1.1316
upperback -2.4897 10.3055 -1.5147
thorax -1.92033 5.10727 -2.41915
lowerneck -7.28501 -7.32144 -1.15487
upperneck -1.76471 -9.77702 3.00397
head 0.896257 -4.877 0.794064
lclavicle -2.65189e-14 -1.16431e-14 0
lhumerus -57.6333 -13.5991 52.9011
lradius 47.46 -0 0
lwrist 17.6232 0 0
lhand -21.1234 -4.45135 0.0272093
lfingers 7.12502 0 0
lthumb 3.23384 23.133 0.0262752
rclavicle -2.65189e-14 -1.16431e-14 0
rhumerus 35.8192 19.8838 -45.4787
rradius 83.9184 -0 0
rwrist -5.35873 0 0
rhand -26.5105 -26.5697 0.167754
rfingers 7.12502 0 0
rthumb -1.91999 -54.6704 0.168456
757
root 3.50576 15.8834 16.1749 -163.738 18.5703 188.602
lfemur -42.9564 19.5519 -24.6002
ltibia 60.5986 0 0
lfoot -33.5941 12.43 0
ltoes 12.1179 0 0
rfemur -23.942 -32.2674 22.2724
rtibia 87.1918 0 0
rfoot 14.2947 -7.28362 0
rtoes 26.0209 0 0
lowerback 3.93523 5.45303 -4.19
upperback -0.426697 7.11109 -3.69508
thorax -2.66981 3.6315 -1.92717
lowerneck -5.24262 -9.09161 -2.03693
upperneck -1.6167 -11.9268 6.4908
head 0.923631 -5.80909 2.04643
lclavicle -3.02153e-14 -9.54166e-15 0
lhumerus -50.0029 -10.9653 90.3241
lradius 61.2835 0 0
lwrist 12.3722 0 0
lhand -29.6042 -8.19519 0
lfingers 7.12502 0 0
lthumb -2.93523 21.7644 0
rclavicle -3.02153e-14 -9.54166e-15 0
rhumerus -11.771 53.887 -99.5944
rradius 86.8935 0 0
rwrist 6.07223 0 0
rhand -17.4264 -17.6606 0
rfingers 7.12502 0 0
rthumb 8.82384 -767.456 0
758
root 3.42053 15.9019 16.2806 -164.769 19.3986 -171.862
lfemur -46.2667 21.1381 -26.5322
ltibia 64.3417 -0 0
lfoot -35.9002 14.0344 0.0658943
ltoes 13.504 -0 0
rfemur -25.9774 -34.4763 24.4881
rtibia 90.4308 -0 0
rfoot 14.2665 -8.99631 0.319634
rtoes 26.2106 -0 0
lowerback 4.16471 5.87662 -4.47737
upperback -0.490531 7.66892 -4.038
thorax -2.85529 3.91564 -2.14543
lowerneck -5.67863 -9.79594 -2.1869
upperneck -1.81241 -12.8381 7.04162
head 0.976645 -6.26119 2.21724
lclavicle -2.56338e-14 -9.39021e-15 0
lhumerus -53.8258 -10.9723 95.0184
lradius 65.6735 -0 0
lwrist 13.2656 0 0
lhand -31.6679 -8.87172 -0.00518841
lfingers 7.12502 0 0
lthumb -2.91042 23.5356 -0.00479809
rclavicle -2.56338e-14 -9.39021e-15 0
rhumerus -14.3164 52.9452 -107.259
rradius 91.1443 -0 0
rwrist 6.62993 0 0
rhand -19.0534 -19.106 -0.000258735
rfingers 7.12502 0 0
rthumb 9.36768 -50.8935 6.79259e-06
759
root 3.33529 15.9203 16.3864 -165.379 20.0847 -172.134
lfemur -48.6502 22.3394 -27.9917
ltibia 66.9351 -0 0
lfoot -37.6084 15.3076 0.143423
ltoes 14.5177 -0 0
rfemur -27.441 -36.0046 26.1914
rtibia 92.3438 -0 0
rfoot 14.1216 -10.3646 0.554575
rtoes 26.2193 -0 0
lowerback 4.33315 6.17667 -4.697
upperback -0.533199 8.06316 -4.29554
thorax -2.9878 4.117 -2.30629
lowerneck -5.98646 -10.3061 -2.29671
upperneck -1.95918 -13.4954 7.45047
head 1.01282 -6.58853 2.34437
lclavicle -2.10523e-14 -9.23875e-15 0
lhumerus -56.4414 -10.9289 98.0631
lradius 68.661 -0 0
lwrist 13.8745 0 0
lhand -33.1343 -9.37471 -0.0106306
lfingers 7.12502 0 0
lthumb -2.8949 24.7898 -0.00980806
rclavicle -2.10523e-14 -9.23875e-15 0
rhumerus -16.6431 52.1304 -112.043
rradius 93.8137 -0 0
rwrist 7.073 0 0
rhand -20.2061 -20.1073 -0.00406978
rfingers 7.12502 0 0
rthumb 9.77615 -53.2228 -0.00337041
